<?xml version="1.0" standalone="no"?>
<!DOCTYPE svg PUBLIC "-//W3C//DTD SVG 20010904//EN"
 "http://www.w3.org/TR/2001/REC-SVG-20010904/DTD/svg10.dtd">
<svg version="1.0" xmlns="http://www.w3.org/2000/svg"
 width="500.000000pt" height="500.000000pt" viewBox="0 0 500.000000 500.000000"
 preserveAspectRatio="xMidYMid meet">

<g transform="translate(0.000000,500.000000) scale(0.100000,-0.100000)"
fill="white" stroke="none">
<path d="M1634 3353 c-368 -600 -393 -639 -408 -652 -10 -8 -68 -14 -168 -17
-235 -7 -227 -5 -267 -72 -19 -31 -203 -327 -408 -656 -206 -330 -372 -602
-371 -606 2 -4 183 195 403 441 219 247 401 447 403 444 5 -5 151 -312 163
-344 8 -21 59 57 450 700 242 398 444 727 448 731 5 6 411 -541 753 -1018 l38
-52 -191 -47 -190 -48 -282 -305 c-347 -376 -358 -388 -332 -378 11 4 187 99
390 210 204 112 378 206 388 209 9 4 24 4 31 1 8 -3 123 -122 255 -265 175
-188 241 -253 241 -237 0 12 -34 154 -75 315 -41 162 -75 305 -75 318 0 18 71
101 277 320 158 168 284 295 294 295 10 0 80 -64 157 -142 358 -368 501 -522
504 -542 11 -69 -14 -139 -157 -441 -31 -66 -52 -115 -47 -110 5 6 44 55 87
110 108 137 203 242 241 266 41 25 80 24 113 -3 22 -20 353 -378 446 -485 l30
-34 105 3 c58 2 105 6 105 9 0 3 -348 371 -774 817 -675 707 -777 810 -790
799 -9 -8 -129 -111 -268 -231 l-252 -216 -53 67 c-29 37 -170 216 -313 398
-143 182 -348 444 -455 583 -107 138 -198 251 -202 251 -3 1 -113 -173 -244
-386z"/>
</g>
</svg>
